<svg xmlns="http://www.w3.org/2000/svg" width="1200" height="630" viewBox="0 0 1200 630" role="img" aria-labelledby="title desc">
  <title id="title">Tienich.pro Video Downloader</title>
  <desc id="desc">Tải video Facebook, TikTok, Jimeng và Douyin trên Tienich.pro.</desc>
  <defs>
    <linearGradient id="bg" x1="0" y1="0" x2="1" y2="1">
      <stop offset="0%" stop-color="#050816"/>
      <stop offset="100%" stop-color="#161b2d"/>
    </linearGradient>
    <linearGradient id="accent" x1="0" y1="0" x2="1" y2="1">
      <stop offset="0%" stop-color="#8b5cf6"/>
      <stop offset="100%" stop-color="#4f46e5"/>
    </linearGradient>
  </defs>
  <rect width="1200" height="630" fill="url(#bg)"/>
  <circle cx="180" cy="120" r="180" fill="#7c3aed" opacity="0.12"/>
  <circle cx="1020" cy="520" r="220" fill="#2563eb" opacity="0.14"/>
  <rect x="82" y="82" width="148" height="148" rx="32" fill="url(#accent)"/>
  <path d="M132 112h48v88h-48z" fill="none"/>
  <path d="M156 122c19 0 34 15 34 34v6c0 19-15 34-34 34s-34-15-34-34v-6c0-19 15-34 34-34zm0 16c-10 0-18 8-18 18v6c0 10 8 18 18 18s18-8 18-18v-6c0-10-8-18-18-18z" fill="#ffffff"/>
  <text x="270" y="158" fill="#ffffff" font-family="Inter, Arial, sans-serif" font-size="58" font-weight="800">TIENICH.PRO</text>
  <text x="270" y="218" fill="#cbd5e1" font-family="Inter, Arial, sans-serif" font-size="24" font-weight="600">Tải Video Facebook, TikTok, Jimeng, Douyin</text>
  <text x="86" y="340" fill="#f8fafc" font-family="Inter, Arial, sans-serif" font-size="72" font-weight="800">Tải video đa nền tảng</text>
  <text x="86" y="404" fill="#94a3b8" font-family="Inter, Arial, sans-serif" font-size="28">Chọn chất lượng cao, tải nhanh, giao diện tối ưu cho mobile và desktop.</text>
  <g transform="translate(86 470)">
    <rect width="168" height="52" rx="26" fill="#111827" stroke="#334155"/>
    <text x="84" y="34" text-anchor="middle" fill="#e2e8f0" font-family="Inter, Arial, sans-serif" font-size="22" font-weight="700">Facebook</text>
  </g>
  <g transform="translate(276 470)">
    <rect width="138" height="52" rx="26" fill="#111827" stroke="#334155"/>
    <text x="69" y="34" text-anchor="middle" fill="#e2e8f0" font-family="Inter, Arial, sans-serif" font-size="22" font-weight="700">TikTok</text>
  </g>
  <g transform="translate(436 470)">
    <rect width="150" height="52" rx="26" fill="#111827" stroke="#334155"/>
    <text x="75" y="34" text-anchor="middle" fill="#e2e8f0" font-family="Inter, Arial, sans-serif" font-size="22" font-weight="700">Jimeng</text>
  </g>
  <g transform="translate(608 470)">
    <rect width="146" height="52" rx="26" fill="#111827" stroke="#334155"/>
    <text x="73" y="34" text-anchor="middle" fill="#e2e8f0" font-family="Inter, Arial, sans-serif" font-size="22" font-weight="700">Douyin</text>
  </g>
</svg>
